<svg width="25" height="24" viewBox="0 0 25 24" fill="none" xmlns="http://www.w3.org/2000/svg">
<path d="M21.875 18.75H21.125V3.75C21.125 3.55109 21.046 3.36032 20.9053 3.21967C20.7647 3.07902 20.5739 3 20.375 3H15.125C14.9261 3 14.7353 3.07902 14.5947 3.21967C14.454 3.36032 14.375 3.55109 14.375 3.75V7.5H9.875C9.67609 7.5 9.48532 7.57902 9.34467 7.71967C9.20402 7.86032 9.125 8.05109 9.125 8.25V12H4.625C4.42609 12 4.23532 12.079 4.09467 12.2197C3.95402 12.3603 3.875 12.5511 3.875 12.75V18.75H3.125C2.92609 18.75 2.73532 18.829 2.59467 18.9697C2.45402 19.1103 2.375 19.3011 2.375 19.5C2.375 19.6989 2.45402 19.8897 2.59467 20.0303C2.73532 20.171 2.92609 20.25 3.125 20.25H21.875C22.0739 20.25 22.2647 20.171 22.4053 20.0303C22.546 19.8897 22.625 19.6989 22.625 19.5C22.625 19.3011 22.546 19.1103 22.4053 18.9697C22.2647 18.829 22.0739 18.75 21.875 18.75ZM10.625 9H14.375V18.75H10.625V9ZM5.375 13.5H9.125V18.75H5.375V13.5Z" fill="white"/>
</svg>
