<svg width="20" height="20" viewBox="0 0 20 20" fill="none" xmlns="http://www.w3.org/2000/svg">
<path fill-rule="evenodd" clip-rule="evenodd" d="M19.9999 10.0007C19.9999 15.5197 15.5199 20.0007 9.99988 20.0007C4.46988 20.0007 -0.000122462 15.5197 -0.000122945 10.0007C-0.000123427 4.47973 4.46988 0.00073378 9.99988 0.000733296C15.5199 0.000732814 19.9999 4.47973 19.9999 10.0007ZM10.8799 13.7907C10.8799 14.2697 10.4799 14.6707 9.99988 14.6707C9.51988 14.6707 9.12988 14.2697 9.12988 13.7907L9.12988 9.37073C9.12988 8.88973 9.51988 8.50073 9.99988 8.50073C10.4799 8.50073 10.8799 8.88973 10.8799 9.37073L10.8799 13.7907ZM9.98988 5.31973C10.4799 5.31973 10.8699 5.71973 10.8699 6.19973C10.8699 6.67973 10.4799 7.06973 9.99988 7.06973C9.50988 7.06973 9.11988 6.67973 9.11988 6.19973C9.11988 5.71973 9.50988 5.31973 9.98988 5.31973Z" fill="white"/>
</svg>
