<svg width="25" height="24" viewBox="0 0 25 24" fill="none" xmlns="http://www.w3.org/2000/svg">
<path d="M19.25 3H17.75V2.25C17.75 2.05109 17.671 1.86032 17.5303 1.71967C17.3897 1.57902 17.1989 1.5 17 1.5C16.8011 1.5 16.6103 1.57902 16.4697 1.71967C16.329 1.86032 16.25 2.05109 16.25 2.25V3H13.25V2.25C13.25 2.05109 13.171 1.86032 13.0303 1.71967C12.8897 1.57902 12.6989 1.5 12.5 1.5C12.3011 1.5 12.1103 1.57902 11.9697 1.71967C11.829 1.86032 11.75 2.05109 11.75 2.25V3H8.75V2.25C8.75 2.05109 8.67098 1.86032 8.53033 1.71967C8.38968 1.57902 8.19891 1.5 8 1.5C7.80109 1.5 7.61032 1.57902 7.46967 1.71967C7.32902 1.86032 7.25 2.05109 7.25 2.25V3H5.75C5.35218 3 4.97064 3.15804 4.68934 3.43934C4.40804 3.72064 4.25 4.10218 4.25 4.5V18.75C4.25 19.5456 4.56607 20.3087 5.12868 20.8713C5.69129 21.4339 6.45435 21.75 7.25 21.75H17.75C18.5456 21.75 19.3087 21.4339 19.8713 20.8713C20.4339 20.3087 20.75 19.5456 20.75 18.75V4.5C20.75 4.10218 20.592 3.72064 20.3107 3.43934C20.0294 3.15804 19.6478 3 19.25 3ZM15.5 15.75H9.5C9.30109 15.75 9.11032 15.671 8.96967 15.5303C8.82902 15.3897 8.75 15.1989 8.75 15C8.75 14.8011 8.82902 14.6103 8.96967 14.4697C9.11032 14.329 9.30109 14.25 9.5 14.25H15.5C15.6989 14.25 15.8897 14.329 16.0303 14.4697C16.171 14.6103 16.25 14.8011 16.25 15C16.25 15.1989 16.171 15.3897 16.0303 15.5303C15.8897 15.671 15.6989 15.75 15.5 15.75ZM15.5 12.75H9.5C9.30109 12.75 9.11032 12.671 8.96967 12.5303C8.82902 12.3897 8.75 12.1989 8.75 12C8.75 11.8011 8.82902 11.6103 8.96967 11.4697C9.11032 11.329 9.30109 11.25 9.5 11.25H15.5C15.6989 11.25 15.8897 11.329 16.0303 11.4697C16.171 11.6103 16.25 11.8011 16.25 12C16.25 12.1989 16.171 12.3897 16.0303 12.5303C15.8897 12.671 15.6989 12.75 15.5 12.75Z" fill="white"/>
</svg>
