<svg width="24" height="24" viewBox="0 0 24 24" fill="none" xmlns="http://www.w3.org/2000/svg">
<path d="M2 11.5598C2 8.73374 2 5.90772 2 3.0817C2 1.27171 3.27171 0 5.0817 0C10.0272 0 14.9728 0 19.9183 0C21.7283 0 23 1.27171 23 3.0817C23 8.74047 23 14.406 23 20.0647C23 21.8747 21.7283 23.1464 19.9183 23.1464C14.9728 23.1464 10.0272 23.1464 5.0817 23.1464C3.27171 23.1464 2 21.8747 2 20.0647C2 17.2253 2 14.3925 2 11.5598ZM7.64531 17.7434C7.27523 17.3666 6.9388 17.0099 6.58892 16.6735C6.25921 16.3573 5.76129 16.364 5.45178 16.6735C5.14899 16.9763 5.12881 17.4742 5.43159 17.7905C5.96988 18.3489 6.5149 18.8939 7.07337 19.4322C7.38289 19.7283 7.82025 19.7216 8.14995 19.439C8.23742 19.365 8.31817 19.2775 8.40564 19.1967C9.23326 18.3826 10.0474 17.555 10.8885 16.7542C11.2384 16.4178 11.3057 15.9401 10.9962 15.5969C10.6866 15.247 10.182 15.2336 9.82538 15.5633C9.68408 15.6979 9.54951 15.8324 9.41493 15.9737C8.83627 16.5457 8.25761 17.1311 7.64531 17.7434ZM7.65204 11.8154C7.30888 11.4656 6.9859 11.1359 6.6562 10.8129C6.27267 10.4361 5.78148 10.4159 5.44505 10.7591C5.12208 11.0955 5.14226 11.5799 5.51234 11.95C5.98334 12.4277 6.46107 12.9055 6.9388 13.3765C7.40308 13.8408 7.82698 13.8408 8.29125 13.3832C9.17943 12.5152 10.0811 11.6472 10.9491 10.7591C11.0769 10.6312 11.1375 10.3822 11.1442 10.1871C11.1509 9.85742 10.9625 9.61519 10.6463 9.49407C10.3166 9.36623 10.0138 9.43352 9.76482 9.68247C9.07177 10.389 8.37873 11.082 7.65204 11.8154ZM7.68568 5.89427C7.34252 5.55111 7.02627 5.2214 6.69657 4.89843C6.38033 4.58891 5.89587 4.60237 5.58635 4.91189C5.28356 5.21468 5.25665 5.69914 5.55271 6.00192C6.05735 6.52003 6.56873 7.0314 7.08683 7.53605C7.42326 7.85902 7.86735 7.85902 8.22397 7.54278C8.28452 7.48895 8.34508 7.42839 8.40564 7.36783C9.19289 6.58731 9.98013 5.80679 10.7741 5.02628C10.8885 4.91189 11.0433 4.81096 11.1173 4.67639C11.2989 4.35341 11.1913 3.92951 10.9087 3.70074C10.5992 3.45851 10.1618 3.45851 9.86575 3.72765C9.52259 4.05062 9.19962 4.38706 8.86319 4.72349C8.4662 5.10702 8.08267 5.49055 7.68568 5.89427ZM16.2579 6.72861C17.1327 6.72861 18.0074 6.72861 18.8821 6.72861C19.4002 6.72861 19.7635 6.39891 19.7703 5.92791C19.777 5.45018 19.4069 5.11375 18.8754 5.11375C17.1327 5.11375 15.3967 5.11375 13.654 5.11375C13.1359 5.11375 12.7725 5.44345 12.7658 5.90772C12.7591 6.37872 13.1359 6.72188 13.6607 6.72188C14.5287 6.72861 15.3899 6.72861 16.2579 6.72861ZM16.2512 12.6431C17.1327 12.6431 18.0141 12.6498 18.9023 12.6431C19.4069 12.6431 19.7635 12.3134 19.7703 11.8558C19.777 11.3915 19.4204 11.0282 18.909 11.0282C17.1528 11.0215 15.3967 11.0215 13.6405 11.0282C13.479 11.0282 13.3041 11.0753 13.1628 11.1493C12.8465 11.3175 12.712 11.6876 12.7994 12.0375C12.8869 12.3806 13.183 12.6296 13.553 12.6296C14.4547 12.6498 15.3496 12.6431 16.2512 12.6431ZM16.2714 16.9628C15.3967 16.9628 14.5219 16.9561 13.6472 16.9628C13.1291 16.9628 12.7658 17.2993 12.7658 17.7635C12.7658 18.2211 13.1359 18.5777 13.6405 18.5777C15.3899 18.5844 17.1394 18.5844 18.8888 18.5777C19.0436 18.5777 19.2118 18.5373 19.3464 18.47C19.6626 18.3153 19.8308 17.9318 19.7501 17.5953C19.6626 17.2387 19.3665 16.9763 18.9965 16.9696C18.0881 16.9561 17.1798 16.9628 16.2714 16.9628Z" fill="white"/>
</svg>
