<svg width="25" height="24" viewBox="0 0 25 24" fill="none" xmlns="http://www.w3.org/2000/svg">
<path d="M12.5 12.7499C14.1569 12.7499 15.5 11.4068 15.5 9.74991C15.5 8.09305 14.1569 6.74991 12.5 6.74991C10.8431 6.74991 9.5 8.09305 9.5 9.74991C9.5 11.4068 10.8431 12.7499 12.5 12.7499Z" fill="white"/>
<path d="M21.5 18.7499H13.25V17.2124C15.1645 17.02 16.9318 16.0991 18.1864 14.6403C19.441 13.1815 20.0869 11.2962 19.9906 9.37453C19.8943 7.45282 19.063 5.64164 17.6688 4.31557C16.2746 2.98951 14.4241 2.25 12.5 2.25C10.5759 2.25 8.72535 2.98951 7.33115 4.31557C5.93695 5.64164 5.10573 7.45282 5.0094 9.37453C4.91308 11.2962 5.55901 13.1815 6.81362 14.6403C8.06822 16.0991 9.83552 17.02 11.75 17.2124V18.7499H3.5C3.30109 18.7499 3.11032 18.8289 2.96967 18.9696C2.82902 19.1102 2.75 19.301 2.75 19.4999C2.75 19.6988 2.82902 19.8896 2.96967 20.0302C3.11032 20.1709 3.30109 20.2499 3.5 20.2499H21.5C21.6989 20.2499 21.8897 20.1709 22.0303 20.0302C22.171 19.8896 22.25 19.6988 22.25 19.4999C22.25 19.301 22.171 19.1102 22.0303 18.9696C21.8897 18.8289 21.6989 18.7499 21.5 18.7499ZM8 9.74991C8 8.85989 8.26392 7.98986 8.75839 7.24984C9.25285 6.50982 9.95566 5.93304 10.7779 5.59245C11.6002 5.25185 12.505 5.16274 13.3779 5.33637C14.2508 5.51001 15.0526 5.93859 15.682 6.56792C16.3113 7.19726 16.7399 7.99908 16.9135 8.872C17.0872 9.74491 16.9981 10.6497 16.6575 11.472C16.3169 12.2942 15.7401 12.9971 15.0001 13.4915C14.26 13.986 13.39 14.2499 12.5 14.2499C11.3065 14.2499 10.1619 13.7758 9.31802 12.9319C8.47411 12.088 8 10.9434 8 9.74991Z" fill="white"/>
</svg>
